<?xml version="1.0" encoding="UTF-8" standalone="no"?><svg xmlns="http://www.w3.org/2000/svg" xmlns:xlink="http://www.w3.org/1999/xlink" clip-rule="evenodd" stroke-miterlimit="10" viewBox="0 0 1024 768"><desc>SVG generated by Keynote</desc><defs></defs><g transform="matrix(1.00, 0.00, -0.00, -1.00, 0.0, 768.0)"><path d="M 0.0 768.0 L 1024.0 768.0 L 1024.0 0.0 L 0.0 0.0 Z M 0.0 768.0 " fill="#FEFFFE"></path><text xml:space="preserve" font-family="Helvetica-Light,Helvetica" font-size="67.2" fill="#000000" transform="matrix(1.00, 0.00, -0.00, -1.00, 114.2, 663.5)">Q</text><text xml:space="preserve" font-family="Helvetica-Light,Helvetica" font-size="67.2" fill="#000000" transform="matrix(1.00, 0.00, -0.00, -1.00, 166.5, 663.5)">u</text><text xml:space="preserve" font-family="Helvetica-Light,Helvetica" font-size="67.2" fill="#000000" transform="matrix(1.00, 0.00, -0.00, -1.00, 203.9, 663.5)">a</text><text xml:space="preserve" font-family="Helvetica-Light,Helvetica" font-size="67.2" fill="#000000" transform="matrix(1.00, 0.00, -0.00, -1.00, 241.3, 663.5)">n</text><text xml:space="preserve" font-family="Helvetica-Light,Helvetica" font-size="67.2" fill="#000000" transform="matrix(1.00, 0.00, -0.00, -1.00, 278.6, 663.5)">t</text><text xml:space="preserve" font-family="Helvetica-Light,Helvetica" font-size="67.2" fill="#000000" transform="matrix(1.00, 0.00, -0.00, -1.00, 297.3, 663.5)">o</text><text xml:space="preserve" font-family="Helvetica-Light,Helvetica" font-size="67.2" fill="#000000" transform="matrix(1.00, 0.00, -0.00, -1.00, 334.7, 663.5)">p</text><text xml:space="preserve" font-family="Helvetica-Light,Helvetica" font-size="67.2" fill="#000000" transform="matrix(1.00, 0.00, -0.00, -1.00, 375.7, 663.5)">i</text><text xml:space="preserve" font-family="Helvetica-Light,Helvetica" font-size="67.2" fill="#000000" transform="matrix(1.00, 0.00, -0.00, -1.00, 390.6, 663.5)">a</text><text xml:space="preserve" font-family="Helvetica-Light,Helvetica" font-size="67.2" fill="#000000" transform="matrix(1.00, 0.00, -0.00, -1.00, 428.0, 663.5)">n</text><text xml:space="preserve" font-family="Helvetica-Light,Helvetica" font-size="67.2" fill="#000000" transform="matrix(1.00, 0.00, -0.00, -1.00, 465.4, 663.5)"> </text><text xml:space="preserve" font-family="Helvetica-Light,Helvetica" font-size="67.2" fill="#000000" transform="matrix(1.00, 0.00, -0.00, -1.00, 484.0, 663.5)">n</text><text xml:space="preserve" font-family="Helvetica-Light,Helvetica" font-size="67.2" fill="#000000" transform="matrix(1.00, 0.00, -0.00, -1.00, 521.4, 663.5)">e</text><text xml:space="preserve" font-family="Helvetica-Light,Helvetica" font-size="67.2" fill="#000000" transform="matrix(1.00, 0.00, -0.00, -1.00, 558.8, 663.5)">e</text><text xml:space="preserve" font-family="Helvetica-Light,Helvetica" font-size="67.2" fill="#000000" transform="matrix(1.00, 0.00, -0.00, -1.00, 596.1, 663.5)">d</text><text xml:space="preserve" font-family="Helvetica-Light,Helvetica" font-size="67.2" fill="#000000" transform="matrix(1.00, 0.00, -0.00, -1.00, 637.2, 663.5)">s</text><text xml:space="preserve" font-family="Helvetica-Light,Helvetica" font-size="67.2" fill="#000000" transform="matrix(1.00, 0.00, -0.00, -1.00, 670.8, 663.5)"> </text><text xml:space="preserve" font-family="Helvetica-Light,Helvetica" font-size="67.2" fill="#000000" transform="matrix(1.00, 0.00, -0.00, -1.00, 689.5, 663.5)">a</text><text xml:space="preserve" font-family="Helvetica-Light,Helvetica" font-size="67.2" fill="#000000" transform="matrix(1.00, 0.00, -0.00, -1.00, 726.8, 663.5)"> </text><text xml:space="preserve" font-family="Helvetica-Light,Helvetica" font-size="67.2" fill="#000000" transform="matrix(1.00, 0.00, -0.00, -1.00, 745.5, 663.5)">m</text><text xml:space="preserve" font-family="Helvetica-Light,Helvetica" font-size="67.2" fill="#000000" transform="matrix(1.00, 0.00, -0.00, -1.00, 801.5, 663.5)">u</text><text xml:space="preserve" font-family="Helvetica-Light,Helvetica" font-size="67.2" fill="#000000" transform="matrix(1.00, 0.00, -0.00, -1.00, 838.9, 663.5)">l</text><text xml:space="preserve" font-family="Helvetica-Light,Helvetica" font-size="67.2" fill="#000000" transform="matrix(1.00, 0.00, -0.00, -1.00, 853.8, 663.5)">t</text><text xml:space="preserve" font-family="Helvetica-Light,Helvetica" font-size="67.2" fill="#000000" transform="matrix(1.00, 0.00, -0.00, -1.00, 872.5, 663.5)">i</text><text xml:space="preserve" font-family="Helvetica-Light,Helvetica" font-size="67.2" fill="#000000" transform="matrix(1.00, 0.00, -0.00, -1.00, 887.4, 663.5)">-</text><text xml:space="preserve" font-family="Helvetica-Light,Helvetica" font-size="67.2" fill="#000000" transform="matrix(1.00, 0.00, -0.00, -1.00, 207.7, 583.5)">d</text><text xml:space="preserve" font-family="Helvetica-Light,Helvetica" font-size="67.2" fill="#000000" transform="matrix(1.00, 0.00, -0.00, -1.00, 248.7, 583.5)">i</text><text xml:space="preserve" font-family="Helvetica-Light,Helvetica" font-size="67.2" fill="#000000" transform="matrix(1.00, 0.00, -0.00, -1.00, 263.6, 583.5)">m</text><text xml:space="preserve" font-family="Helvetica-Light,Helvetica" font-size="67.2" fill="#000000" transform="matrix(1.00, 0.00, -0.00, -1.00, 319.6, 583.5)">e</text><text xml:space="preserve" font-family="Helvetica-Light,Helvetica" font-size="67.2" fill="#000000" transform="matrix(1.00, 0.00, -0.00, -1.00, 357.0, 583.5)">n</text><text xml:space="preserve" font-family="Helvetica-Light,Helvetica" font-size="67.2" fill="#000000" transform="matrix(1.00, 0.00, -0.00, -1.00, 394.3, 583.5)">s</text><text xml:space="preserve" font-family="Helvetica-Light,Helvetica" font-size="67.2" fill="#000000" transform="matrix(1.00, 0.00, -0.00, -1.00, 427.9, 583.5)">i</text><text xml:space="preserve" font-family="Helvetica-Light,Helvetica" font-size="67.2" fill="#000000" transform="matrix(1.00, 0.00, -0.00, -1.00, 442.9, 583.5)">o</text><text xml:space="preserve" font-family="Helvetica-Light,Helvetica" font-size="67.2" fill="#000000" transform="matrix(1.00, 0.00, -0.00, -1.00, 480.2, 583.5)">n</text><text xml:space="preserve" font-family="Helvetica-Light,Helvetica" font-size="67.2" fill="#000000" transform="matrix(1.00, 0.00, -0.00, -1.00, 517.6, 583.5)">a</text><text xml:space="preserve" font-family="Helvetica-Light,Helvetica" font-size="67.2" fill="#000000" transform="matrix(1.00, 0.00, -0.00, -1.00, 554.9, 583.5)">l</text><text xml:space="preserve" font-family="Helvetica-Light,Helvetica" font-size="67.2" fill="#000000" transform="matrix(1.00, 0.00, -0.00, -1.00, 569.9, 583.5)"> </text><text xml:space="preserve" font-family="Helvetica-Light,Helvetica" font-size="67.2" fill="#000000" transform="matrix(1.00, 0.00, -0.00, -1.00, 588.5, 583.5)">p</text><text xml:space="preserve" font-family="Helvetica-Light,Helvetica" font-size="67.2" fill="#000000" transform="matrix(1.00, 0.00, -0.00, -1.00, 629.6, 583.5)">e</text><text xml:space="preserve" font-family="Helvetica-Light,Helvetica" font-size="67.2" fill="#000000" transform="matrix(1.00, 0.00, -0.00, -1.00, 667.0, 583.5)">r</text><text xml:space="preserve" font-family="Helvetica-Light,Helvetica" font-size="67.2" fill="#000000" transform="matrix(1.00, 0.00, -0.00, -1.00, 689.3, 583.5)">s</text><text xml:space="preserve" font-family="Helvetica-Light,Helvetica" font-size="67.2" fill="#000000" transform="matrix(1.00, 0.00, -0.00, -1.00, 722.9, 583.5)">o</text><text xml:space="preserve" font-family="Helvetica-Light,Helvetica" font-size="67.2" fill="#000000" transform="matrix(1.00, 0.00, -0.00, -1.00, 760.3, 583.5)">n</text><text xml:space="preserve" font-family="Helvetica-Light,Helvetica" font-size="67.2" fill="#000000" transform="matrix(1.00, 0.00, -0.00, -1.00, 797.7, 583.5)">.</text><text xml:space="preserve" font-family="Helvetica-Light,Helvetica" font-size="21.0" fill="#000000" transform="matrix(1.00, 0.00, -0.00, -1.00, 79.0, 423.3)">•</text><text xml:space="preserve" font-family="Helvetica-Light,Helvetica" font-size="28.0" fill="#000000" transform="matrix(1.00, 0.00, -0.00, -1.00, 106.0, 420.4)">F</text><text xml:space="preserve" font-family="Helvetica-Light,Helvetica" font-size="28.0" fill="#000000" transform="matrix(1.00, 0.00, -0.00, -1.00, 121.6, 420.4)">i</text><text xml:space="preserve" font-family="Helvetica-Light,Helvetica" font-size="28.0" fill="#000000" transform="matrix(1.00, 0.00, -0.00, -1.00, 127.8, 420.4)">n</text><text xml:space="preserve" font-family="Helvetica-Light,Helvetica" font-size="28.0" fill="#000000" transform="matrix(1.00, 0.00, -0.00, -1.00, 143.4, 420.4)">a</text><text xml:space="preserve" font-family="Helvetica-Light,Helvetica" font-size="28.0" fill="#000000" transform="matrix(1.00, 0.00, -0.00, -1.00, 158.9, 420.4)">n</text><text xml:space="preserve" font-family="Helvetica-Light,Helvetica" font-size="28.0" fill="#000000" transform="matrix(1.00, 0.00, -0.00, -1.00, 174.5, 420.4)">c</text><text xml:space="preserve" font-family="Helvetica-Light,Helvetica" font-size="28.0" fill="#000000" transform="matrix(1.00, 0.00, -0.00, -1.00, 190.1, 420.4)">e</text><text xml:space="preserve" font-family="Helvetica-Light,Helvetica" font-size="28.0" fill="#000000" transform="matrix(1.00, 0.00, -0.00, -1.00, 205.6, 420.4)"> </text><text xml:space="preserve" font-family="Helvetica-Light,Helvetica" font-size="28.0" fill="#000000" transform="matrix(1.00, 0.00, -0.00, -1.00, 213.4, 420.4)">k</text><text xml:space="preserve" font-family="Helvetica-Light,Helvetica" font-size="28.0" fill="#000000" transform="matrix(1.00, 0.00, -0.00, -1.00, 227.4, 420.4)">n</text><text xml:space="preserve" font-family="Helvetica-Light,Helvetica" font-size="28.0" fill="#000000" transform="matrix(1.00, 0.00, -0.00, -1.00, 243.0, 420.4)">o</text><text xml:space="preserve" font-family="Helvetica-Light,Helvetica" font-size="28.0" fill="#000000" transform="matrix(1.00, 0.00, -0.00, -1.00, 258.5, 420.4)">w</text><text xml:space="preserve" font-family="Helvetica-Light,Helvetica" font-size="28.0" fill="#000000" transform="matrix(1.00, 0.00, -0.00, -1.00, 278.8, 420.4)">l</text><text xml:space="preserve" font-family="Helvetica-Light,Helvetica" font-size="28.0" fill="#000000" transform="matrix(1.00, 0.00, -0.00, -1.00, 285.0, 420.4)">e</text><text xml:space="preserve" font-family="Helvetica-Light,Helvetica" font-size="28.0" fill="#000000" transform="matrix(1.00, 0.00, -0.00, -1.00, 300.5, 420.4)">d</text><text xml:space="preserve" font-family="Helvetica-Light,Helvetica" font-size="28.0" fill="#000000" transform="matrix(1.00, 0.00, -0.00, -1.00, 317.7, 420.4)">g</text><text xml:space="preserve" font-family="Helvetica-Light,Helvetica" font-size="28.0" fill="#000000" transform="matrix(1.00, 0.00, -0.00, -1.00, 334.8, 420.4)">e</text><text xml:space="preserve" font-family="Helvetica-Light,Helvetica" font-size="28.0" fill="#000000" transform="matrix(1.00, 0.00, -0.00, -1.00, 350.3, 420.4)"> </text><text xml:space="preserve" font-family="Helvetica-Light,Helvetica" font-size="28.0" fill="#000000" transform="matrix(1.00, 0.00, -0.00, -1.00, 358.1, 420.4)">(</text><text xml:space="preserve" font-family="Helvetica-Light,Helvetica" font-size="28.0" fill="#000000" transform="matrix(1.00, 0.00, -0.00, -1.00, 367.4, 420.4)">o</text><text xml:space="preserve" font-family="Helvetica-Light,Helvetica" font-size="28.0" fill="#000000" transform="matrix(1.00, 0.00, -0.00, -1.00, 383.0, 420.4)">r</text><text xml:space="preserve" font-family="Helvetica-Light,Helvetica" font-size="28.0" fill="#000000" transform="matrix(1.00, 0.00, -0.00, -1.00, 392.3, 420.4)"> </text><text xml:space="preserve" font-family="Helvetica-Light,Helvetica" font-size="28.0" fill="#000000" transform="matrix(1.00, 0.00, -0.00, -1.00, 400.1, 420.4)">a</text><text xml:space="preserve" font-family="Helvetica-Light,Helvetica" font-size="28.0" fill="#000000" transform="matrix(1.00, 0.00, -0.00, -1.00, 415.7, 420.4)">t</text><text xml:space="preserve" font-family="Helvetica-Light,Helvetica" font-size="28.0" fill="#000000" transform="matrix(1.00, 0.00, -0.00, -1.00, 423.5, 420.4)"> </text><text xml:space="preserve" font-family="Helvetica-Light,Helvetica" font-size="28.0" fill="#000000" transform="matrix(1.00, 0.00, -0.00, -1.00, 431.2, 420.4)">l</text><text xml:space="preserve" font-family="Helvetica-Light,Helvetica" font-size="28.0" fill="#000000" transform="matrix(1.00, 0.00, -0.00, -1.00, 437.5, 420.4)">e</text><text xml:space="preserve" font-family="Helvetica-Light,Helvetica" font-size="28.0" fill="#000000" transform="matrix(1.00, 0.00, -0.00, -1.00, 453.0, 420.4)">a</text><text xml:space="preserve" font-family="Helvetica-Light,Helvetica" font-size="28.0" fill="#000000" transform="matrix(1.00, 0.00, -0.00, -1.00, 468.6, 420.4)">s</text><text xml:space="preserve" font-family="Helvetica-Light,Helvetica" font-size="28.0" fill="#000000" transform="matrix(1.00, 0.00, -0.00, -1.00, 482.6, 420.4)">t</text><text xml:space="preserve" font-family="Helvetica-Light,Helvetica" font-size="28.0" fill="#000000" transform="matrix(1.00, 0.00, -0.00, -1.00, 490.4, 420.4)"> </text><text xml:space="preserve" font-family="Helvetica-Light,Helvetica" font-size="28.0" fill="#000000" transform="matrix(1.00, 0.00, -0.00, -1.00, 106.0, 386.4)">s</text><text xml:space="preserve" font-family="Helvetica-Light,Helvetica" font-size="28.0" fill="#000000" transform="matrix(1.00, 0.00, -0.00, -1.00, 120.0, 386.4)">o</text><text xml:space="preserve" font-family="Helvetica-Light,Helvetica" font-size="28.0" fill="#000000" transform="matrix(1.00, 0.00, -0.00, -1.00, 135.6, 386.4)">m</text><text xml:space="preserve" font-family="Helvetica-Light,Helvetica" font-size="28.0" fill="#000000" transform="matrix(1.00, 0.00, -0.00, -1.00, 158.9, 386.4)">e</text><text xml:space="preserve" font-family="Helvetica-Light,Helvetica" font-size="28.0" fill="#000000" transform="matrix(1.00, 0.00, -0.00, -1.00, 174.5, 386.4)"> </text><text xml:space="preserve" font-family="Helvetica-Light,Helvetica" font-size="28.0" fill="#000000" transform="matrix(1.00, 0.00, -0.00, -1.00, 182.2, 386.4)">i</text><text xml:space="preserve" font-family="Helvetica-Light,Helvetica" font-size="28.0" fill="#000000" transform="matrix(1.00, 0.00, -0.00, -1.00, 188.5, 386.4)">n</text><text xml:space="preserve" font-family="Helvetica-Light,Helvetica" font-size="28.0" fill="#000000" transform="matrix(1.00, 0.00, -0.00, -1.00, 204.0, 386.4)">t</text><text xml:space="preserve" font-family="Helvetica-Light,Helvetica" font-size="28.0" fill="#000000" transform="matrix(1.00, 0.00, -0.00, -1.00, 211.8, 386.4)">u</text><text xml:space="preserve" font-family="Helvetica-Light,Helvetica" font-size="28.0" fill="#000000" transform="matrix(1.00, 0.00, -0.00, -1.00, 227.4, 386.4)">i</text><text xml:space="preserve" font-family="Helvetica-Light,Helvetica" font-size="28.0" fill="#000000" transform="matrix(1.00, 0.00, -0.00, -1.00, 233.6, 386.4)">t</text><text xml:space="preserve" font-family="Helvetica-Light,Helvetica" font-size="28.0" fill="#000000" transform="matrix(1.00, 0.00, -0.00, -1.00, 241.4, 386.4)">i</text><text xml:space="preserve" font-family="Helvetica-Light,Helvetica" font-size="28.0" fill="#000000" transform="matrix(1.00, 0.00, -0.00, -1.00, 247.6, 386.4)">o</text><text xml:space="preserve" font-family="Helvetica-Light,Helvetica" font-size="28.0" fill="#000000" transform="matrix(1.00, 0.00, -0.00, -1.00, 263.2, 386.4)">n</text><text xml:space="preserve" font-family="Helvetica-Light,Helvetica" font-size="28.0" fill="#000000" transform="matrix(1.00, 0.00, -0.00, -1.00, 278.7, 386.4)">)</text><text xml:space="preserve" font-family="Helvetica-Light,Helvetica" font-size="28.0" fill="#000000" transform="matrix(1.00, 0.00, -0.00, -1.00, 288.1, 386.4)"> </text><text xml:space="preserve" font-family="Helvetica-Light,Helvetica" font-size="21.0" fill="#000000" transform="matrix(1.00, 0.00, -0.00, -1.00, 79.0, 323.3)">•</text><text xml:space="preserve" font-family="Helvetica-Light,Helvetica" font-size="28.0" fill="#000000" transform="matrix(1.00, 0.00, -0.00, -1.00, 106.0, 320.4)">P</text><text xml:space="preserve" font-family="Helvetica-Light,Helvetica" font-size="28.0" fill="#000000" transform="matrix(1.00, 0.00, -0.00, -1.00, 123.1, 320.4)">y</text><text xml:space="preserve" font-family="Helvetica-Light,Helvetica" font-size="28.0" fill="#000000" transform="matrix(1.00, 0.00, -0.00, -1.00, 137.1, 320.4)">t</text><text xml:space="preserve" font-family="Helvetica-Light,Helvetica" font-size="28.0" fill="#000000" transform="matrix(1.00, 0.00, -0.00, -1.00, 144.9, 320.4)">h</text><text xml:space="preserve" font-family="Helvetica-Light,Helvetica" font-size="28.0" fill="#000000" transform="matrix(1.00, 0.00, -0.00, -1.00, 160.5, 320.4)">o</text><text xml:space="preserve" font-family="Helvetica-Light,Helvetica" font-size="28.0" fill="#000000" transform="matrix(1.00, 0.00, -0.00, -1.00, 176.0, 320.4)">n</text><text xml:space="preserve" font-family="Helvetica-Light,Helvetica" font-size="28.0" fill="#000000" transform="matrix(1.00, 0.00, -0.00, -1.00, 191.6, 320.4)"> </text><text xml:space="preserve" font-family="Helvetica-Light,Helvetica" font-size="28.0" fill="#000000" transform="matrix(1.00, 0.00, -0.00, -1.00, 199.4, 320.4)">s</text><text xml:space="preserve" font-family="Helvetica-Light,Helvetica" font-size="28.0" fill="#000000" transform="matrix(1.00, 0.00, -0.00, -1.00, 213.4, 320.4)">k</text><text xml:space="preserve" font-family="Helvetica-Light,Helvetica" font-size="28.0" fill="#000000" transform="matrix(1.00, 0.00, -0.00, -1.00, 227.4, 320.4)">i</text><text xml:space="preserve" font-family="Helvetica-Light,Helvetica" font-size="28.0" fill="#000000" transform="matrix(1.00, 0.00, -0.00, -1.00, 233.6, 320.4)">l</text><text xml:space="preserve" font-family="Helvetica-Light,Helvetica" font-size="28.0" fill="#000000" transform="matrix(1.00, 0.00, -0.00, -1.00, 239.8, 320.4)">l</text><text xml:space="preserve" font-family="Helvetica-Light,Helvetica" font-size="28.0" fill="#000000" transform="matrix(1.00, 0.00, -0.00, -1.00, 246.0, 320.4)">s</text><text xml:space="preserve" font-family="Helvetica-Light,Helvetica" font-size="28.0" fill="#000000" transform="matrix(1.00, 0.00, -0.00, -1.00, 260.0, 320.4)"> </text><text xml:space="preserve" font-family="Helvetica-Light,Helvetica" font-size="21.0" fill="#000000" transform="matrix(1.00, 0.00, -0.00, -1.00, 79.0, 257.3)">•</text><text xml:space="preserve" font-family="Helvetica-Light,Helvetica" font-size="28.0" fill="#000000" transform="matrix(1.00, 0.00, -0.00, -1.00, 106.0, 254.4)">H</text><text xml:space="preserve" font-family="Helvetica-Light,Helvetica" font-size="28.0" fill="#000000" transform="matrix(1.00, 0.00, -0.00, -1.00, 126.2, 254.4)">a</text><text xml:space="preserve" font-family="Helvetica-Light,Helvetica" font-size="28.0" fill="#000000" transform="matrix(1.00, 0.00, -0.00, -1.00, 141.8, 254.4)">c</text><text xml:space="preserve" font-family="Helvetica-Light,Helvetica" font-size="28.0" fill="#000000" transform="matrix(1.00, 0.00, -0.00, -1.00, 157.4, 254.4)">k</text><text xml:space="preserve" font-family="Helvetica-Light,Helvetica" font-size="28.0" fill="#000000" transform="matrix(1.00, 0.00, -0.00, -1.00, 171.4, 254.4)">e</text><text xml:space="preserve" font-family="Helvetica-Light,Helvetica" font-size="28.0" fill="#000000" transform="matrix(1.00, 0.00, -0.00, -1.00, 186.9, 254.4)">r</text><text xml:space="preserve" font-family="Helvetica-Light,Helvetica" font-size="28.0" fill="#000000" transform="matrix(1.00, 0.00, -0.00, -1.00, 196.2, 254.4)"> </text><text xml:space="preserve" font-family="Helvetica-Light,Helvetica" font-size="28.0" fill="#000000" transform="matrix(1.00, 0.00, -0.00, -1.00, 204.0, 254.4)">s</text><text xml:space="preserve" font-family="Helvetica-Light,Helvetica" font-size="28.0" fill="#000000" transform="matrix(1.00, 0.00, -0.00, -1.00, 218.0, 254.4)">k</text><text xml:space="preserve" font-family="Helvetica-Light,Helvetica" font-size="28.0" fill="#000000" transform="matrix(1.00, 0.00, -0.00, -1.00, 232.0, 254.4)">i</text><text xml:space="preserve" font-family="Helvetica-Light,Helvetica" font-size="28.0" fill="#000000" transform="matrix(1.00, 0.00, -0.00, -1.00, 238.2, 254.4)">l</text><text xml:space="preserve" font-family="Helvetica-Light,Helvetica" font-size="28.0" fill="#000000" transform="matrix(1.00, 0.00, -0.00, -1.00, 244.5, 254.4)">l</text><text xml:space="preserve" font-family="Helvetica-Light,Helvetica" font-size="28.0" fill="#000000" transform="matrix(1.00, 0.00, -0.00, -1.00, 250.7, 254.4)">s</text><text xml:space="preserve" font-family="Helvetica-Light,Helvetica" font-size="28.0" fill="#000000" transform="matrix(1.00, 0.00, -0.00, -1.00, 264.7, 254.4)"> </text><text xml:space="preserve" font-family="Helvetica-Light,Helvetica" font-size="21.0" fill="#000000" transform="matrix(1.00, 0.00, -0.00, -1.00, 79.0, 191.3)">•</text><text xml:space="preserve" font-family="Helvetica-Light,Helvetica" font-size="28.0" fill="#000000" transform="matrix(1.00, 0.00, -0.00, -1.00, 106.0, 188.4)">A</text><text xml:space="preserve" font-family="Helvetica-Light,Helvetica" font-size="28.0" fill="#000000" transform="matrix(1.00, 0.00, -0.00, -1.00, 124.7, 188.4)">c</text><text xml:space="preserve" font-family="Helvetica-Light,Helvetica" font-size="28.0" fill="#000000" transform="matrix(1.00, 0.00, -0.00, -1.00, 140.2, 188.4)">c</text><text xml:space="preserve" font-family="Helvetica-Light,Helvetica" font-size="28.0" fill="#000000" transform="matrix(1.00, 0.00, -0.00, -1.00, 155.8, 188.4)">e</text><text xml:space="preserve" font-family="Helvetica-Light,Helvetica" font-size="28.0" fill="#000000" transform="matrix(1.00, 0.00, -0.00, -1.00, 171.4, 188.4)">s</text><text xml:space="preserve" font-family="Helvetica-Light,Helvetica" font-size="28.0" fill="#000000" transform="matrix(1.00, 0.00, -0.00, -1.00, 185.4, 188.4)">s</text><text xml:space="preserve" font-family="Helvetica-Light,Helvetica" font-size="28.0" fill="#000000" transform="matrix(1.00, 0.00, -0.00, -1.00, 199.4, 188.4)"> </text><text xml:space="preserve" font-family="Helvetica-Light,Helvetica" font-size="28.0" fill="#000000" transform="matrix(1.00, 0.00, -0.00, -1.00, 207.2, 188.4)">t</text><text xml:space="preserve" font-family="Helvetica-Light,Helvetica" font-size="28.0" fill="#000000" transform="matrix(1.00, 0.00, -0.00, -1.00, 214.9, 188.4)">o</text><text xml:space="preserve" font-family="Helvetica-Light,Helvetica" font-size="28.0" fill="#000000" transform="matrix(1.00, 0.00, -0.00, -1.00, 230.5, 188.4)"> </text><text xml:space="preserve" font-family="Helvetica-Light,Helvetica" font-size="28.0" fill="#000000" transform="matrix(1.00, 0.00, -0.00, -1.00, 238.3, 188.4)">t</text><text xml:space="preserve" font-family="Helvetica-Light,Helvetica" font-size="28.0" fill="#000000" transform="matrix(1.00, 0.00, -0.00, -1.00, 246.1, 188.4)">r</text><text xml:space="preserve" font-family="Helvetica-Light,Helvetica" font-size="28.0" fill="#000000" transform="matrix(1.00, 0.00, -0.00, -1.00, 255.4, 188.4)">a</text><text xml:space="preserve" font-family="Helvetica-Light,Helvetica" font-size="28.0" fill="#000000" transform="matrix(1.00, 0.00, -0.00, -1.00, 271.0, 188.4)">d</text><text xml:space="preserve" font-family="Helvetica-Light,Helvetica" font-size="28.0" fill="#000000" transform="matrix(1.00, 0.00, -0.00, -1.00, 288.1, 188.4)">a</text><text xml:space="preserve" font-family="Helvetica-Light,Helvetica" font-size="28.0" fill="#000000" transform="matrix(1.00, 0.00, -0.00, -1.00, 303.7, 188.4)">b</text><text xml:space="preserve" font-family="Helvetica-Light,Helvetica" font-size="28.0" fill="#000000" transform="matrix(1.00, 0.00, -0.00, -1.00, 320.8, 188.4)">l</text><text xml:space="preserve" font-family="Helvetica-Light,Helvetica" font-size="28.0" fill="#000000" transform="matrix(1.00, 0.00, -0.00, -1.00, 327.0, 188.4)">e</text><text xml:space="preserve" font-family="Helvetica-Light,Helvetica" font-size="28.0" fill="#000000" transform="matrix(1.00, 0.00, -0.00, -1.00, 342.5, 188.4)"> </text><text xml:space="preserve" font-family="Helvetica-Light,Helvetica" font-size="28.0" fill="#000000" transform="matrix(1.00, 0.00, -0.00, -1.00, 350.3, 188.4)">c</text><text xml:space="preserve" font-family="Helvetica-Light,Helvetica" font-size="28.0" fill="#000000" transform="matrix(1.00, 0.00, -0.00, -1.00, 365.9, 188.4)">a</text><text xml:space="preserve" font-family="Helvetica-Light,Helvetica" font-size="28.0" fill="#000000" transform="matrix(1.00, 0.00, -0.00, -1.00, 381.5, 188.4)">p</text><text xml:space="preserve" font-family="Helvetica-Light,Helvetica" font-size="28.0" fill="#000000" transform="matrix(1.00, 0.00, -0.00, -1.00, 398.6, 188.4)">i</text><text xml:space="preserve" font-family="Helvetica-Light,Helvetica" font-size="28.0" fill="#000000" transform="matrix(1.00, 0.00, -0.00, -1.00, 404.8, 188.4)">t</text><text xml:space="preserve" font-family="Helvetica-Light,Helvetica" font-size="28.0" fill="#000000" transform="matrix(1.00, 0.00, -0.00, -1.00, 412.6, 188.4)">a</text><text xml:space="preserve" font-family="Helvetica-Light,Helvetica" font-size="28.0" fill="#000000" transform="matrix(1.00, 0.00, -0.00, -1.00, 428.1, 188.4)">l</text><text xml:space="preserve" font-family="Helvetica-Light,Helvetica" font-size="28.0" fill="#000000" transform="matrix(1.00, 0.00, -0.00, -1.00, 434.4, 188.4)"> </text><g opacity="0.30"><g><clipPath id="clip0x6080018b6680"><path d="M 671.0 287.0 L 879.0 287.0 L 879.0 499.0 L 671.0 499.0 Z M 671.0 287.0 "></path></clipPath><g clip-path="url(#clip0x6080018b6680)"><image xlink:href="349E00A00DB2AB255463F742CF4181CA.png" width="206.00" height="206.00" transform="matrix(1.00, 0.00, -0.00, -1.00, 672.0, 494.0)" opacity="0.50"></image></g></g><g><clipPath id="clip0x600001ab1640"><path d="M 845.7 463.7 C 884.8 424.7 884.8 361.3 845.7 322.3 C 806.7 283.2 743.3 283.2 704.3 322.3 C 665.2 361.3 665.2 424.7 704.3 463.7 C 743.3 502.8 806.7 502.8 845.7 463.7 Z M 845.7 463.7 "></path></clipPath><g clip-path="url(#clip0x600001ab1640)"><g><clipPath id="clip0x600001aab160"><path d="M 671.0 287.0 L 879.0 287.0 L 879.0 499.0 L 671.0 499.0 Z M 671.0 287.0 "></path></clipPath><g clip-path="url(#clip0x600001aab160)"><image xlink:href="C3C0FC898C94653CAF8AD846D6CCD108.png" width="600.00" height="600.00" transform="matrix(0.50, 0.00, -0.00, -0.50, 675.0, 493.0)"></image></g></g></g></g></g><g opacity="0.30"><g><clipPath id="clip0x608001ea8220"><path d="M 746.0 212.0 L 954.0 212.0 L 954.0 424.0 L 746.0 424.0 Z M 746.0 212.0 "></path></clipPath><g clip-path="url(#clip0x608001ea8220)"><image xlink:href="../../8E02A10E-EE67-4322-A5B4-A98FBC76EF0B/assets/349E00A00DB2AB255463F742CF4181CA.png" width="206.00" height="206.00" transform="matrix(1.00, 0.00, -0.00, -1.00, 747.0, 419.0)" opacity="0.50"></image></g></g><g><clipPath id="clip0x6000018b7a00"><path d="M 920.7 388.7 C 959.8 349.7 959.8 286.3 920.7 247.3 C 881.7 208.2 818.3 208.2 779.3 247.3 C 740.2 286.3 740.2 349.7 779.3 388.7 C 818.3 427.8 881.7 427.8 920.7 388.7 Z M 920.7 388.7 "></path></clipPath><g clip-path="url(#clip0x6000018b7a00)"><g><clipPath id="clip0x600001aa7da0"><path d="M 746.0 212.0 L 954.0 212.0 L 954.0 424.0 L 746.0 424.0 Z M 746.0 212.0 "></path></clipPath><g clip-path="url(#clip0x600001aa7da0)"><image xlink:href="../../8E02A10E-EE67-4322-A5B4-A98FBC76EF0B/assets/C3C0FC898C94653CAF8AD846D6CCD108.png" width="600.00" height="600.00" transform="matrix(0.50, 0.00, -0.00, -0.50, 750.0, 418.0)"></image></g></g></g></g></g><g opacity="0.30"><g><clipPath id="clip0x608001ca74a0"><path d="M 596.0 212.0 L 804.0 212.0 L 804.0 424.0 L 596.0 424.0 Z M 596.0 212.0 "></path></clipPath><g clip-path="url(#clip0x608001ca74a0)"><image xlink:href="../../8E02A10E-EE67-4322-A5B4-A98FBC76EF0B/assets/349E00A00DB2AB255463F742CF4181CA.png" width="206.00" height="206.00" transform="matrix(1.00, 0.00, -0.00, -1.00, 597.0, 419.0)" opacity="0.50"></image></g></g><g><clipPath id="clip0x600001ab24e0"><path d="M 770.7 388.7 C 809.8 349.7 809.8 286.3 770.7 247.3 C 731.7 208.2 668.3 208.2 629.3 247.3 C 590.2 286.3 590.2 349.7 629.3 388.7 C 668.3 427.8 731.7 427.8 770.7 388.7 Z M 770.7 388.7 "></path></clipPath><g clip-path="url(#clip0x600001ab24e0)"><g><clipPath id="clip0x600001aaa980"><path d="M 596.0 212.0 L 804.0 212.0 L 804.0 424.0 L 596.0 424.0 Z M 596.0 212.0 "></path></clipPath><g clip-path="url(#clip0x600001aaa980)"><image xlink:href="../../8E02A10E-EE67-4322-A5B4-A98FBC76EF0B/assets/C3C0FC898C94653CAF8AD846D6CCD108.png" width="600.00" height="600.00" transform="matrix(0.50, 0.00, -0.00, -0.50, 600.0, 418.0)"></image></g></g></g></g></g><g opacity="0.30"><g><clipPath id="clip0x608001ca5160"><path d="M 671.0 137.0 L 879.0 137.0 L 879.0 349.0 L 671.0 349.0 Z M 671.0 137.0 "></path></clipPath><g clip-path="url(#clip0x608001ca5160)"><image xlink:href="../../8E02A10E-EE67-4322-A5B4-A98FBC76EF0B/assets/349E00A00DB2AB255463F742CF4181CA.png" width="206.00" height="206.00" transform="matrix(1.00, 0.00, -0.00, -1.00, 672.0, 344.0)" opacity="0.50"></image></g></g><g><clipPath id="clip0x6000012be7e0"><path d="M 845.7 313.7 C 884.8 274.7 884.8 211.3 845.7 172.3 C 806.7 133.2 743.3 133.2 704.3 172.3 C 665.2 211.3 665.2 274.7 704.3 313.7 C 743.3 352.8 806.7 352.8 845.7 313.7 Z M 845.7 313.7 "></path></clipPath><g clip-path="url(#clip0x6000012be7e0)"><g><clipPath id="clip0x6000012bc980"><path d="M 671.0 137.0 L 879.0 137.0 L 879.0 349.0 L 671.0 349.0 Z M 671.0 137.0 "></path></clipPath><g clip-path="url(#clip0x6000012bc980)"><image xlink:href="../../8E02A10E-EE67-4322-A5B4-A98FBC76EF0B/assets/C3C0FC898C94653CAF8AD846D6CCD108.png" width="600.00" height="600.00" transform="matrix(0.50, 0.00, -0.00, -0.50, 675.0, 343.0)"></image></g></g></g></g></g></g></svg>