<?xml version="1.0" encoding="UTF-8" standalone="no"?><svg xmlns="http://www.w3.org/2000/svg" xmlns:xlink="http://www.w3.org/1999/xlink" clip-rule="evenodd" stroke-miterlimit="10" viewBox="0 0 1024 768"><desc>SVG generated by Keynote</desc><defs></defs><g transform="matrix(1.00, 0.00, -0.00, -1.00, 0.0, 768.0)"><path d="M 0.0 768.0 L 1024.0 768.0 L 1024.0 0.0 L 0.0 0.0 Z M 0.0 768.0 " fill="#FEFFFF"></path><text xml:space="preserve" font-family="Helvetica-Light,Helvetica" font-size="70.4" fill="#000000" transform="matrix(1.00, 0.00, -0.00, -1.00, 82.2, 622.2)">R</text><text xml:space="preserve" font-family="Helvetica-Light,Helvetica" font-size="70.4" fill="#000000" transform="matrix(1.00, 0.00, -0.00, -1.00, 129.2, 622.2)">e</text><text xml:space="preserve" font-family="Helvetica-Light,Helvetica" font-size="70.4" fill="#000000" transform="matrix(1.00, 0.00, -0.00, -1.00, 168.3, 622.2)">s</text><text xml:space="preserve" font-family="Helvetica-Light,Helvetica" font-size="70.4" fill="#000000" transform="matrix(1.00, 0.00, -0.00, -1.00, 203.5, 622.2)">e</text><text xml:space="preserve" font-family="Helvetica-Light,Helvetica" font-size="70.4" fill="#000000" transform="matrix(1.00, 0.00, -0.00, -1.00, 242.6, 622.2)">a</text><text xml:space="preserve" font-family="Helvetica-Light,Helvetica" font-size="70.4" fill="#000000" transform="matrix(1.00, 0.00, -0.00, -1.00, 281.8, 622.2)">r</text><text xml:space="preserve" font-family="Helvetica-Light,Helvetica" font-size="70.4" fill="#000000" transform="matrix(1.00, 0.00, -0.00, -1.00, 304.0, 622.2)">c</text><text xml:space="preserve" font-family="Helvetica-Light,Helvetica" font-size="70.4" fill="#000000" transform="matrix(1.00, 0.00, -0.00, -1.00, 343.1, 622.2)">h</text><text xml:space="preserve" font-family="Helvetica-Light,Helvetica" font-size="70.4" fill="#000000" transform="matrix(1.00, 0.00, -0.00, -1.00, 382.3, 622.2)">i</text><text xml:space="preserve" font-family="Helvetica-Light,Helvetica" font-size="70.4" fill="#000000" transform="matrix(1.00, 0.00, -0.00, -1.00, 397.9, 622.2)">n</text><text xml:space="preserve" font-family="Helvetica-Light,Helvetica" font-size="70.4" fill="#000000" transform="matrix(1.00, 0.00, -0.00, -1.00, 437.0, 622.2)">g</text><text xml:space="preserve" font-family="Helvetica-Light,Helvetica" font-size="70.4" fill="#000000" transform="matrix(1.00, 0.00, -0.00, -1.00, 480.0, 622.2)"> </text><text xml:space="preserve" font-family="Helvetica-Light,Helvetica" font-size="70.4" fill="#000000" transform="matrix(1.00, 0.00, -0.00, -1.00, 499.6, 622.2)">i</text><text xml:space="preserve" font-family="Helvetica-Light,Helvetica" font-size="70.4" fill="#000000" transform="matrix(1.00, 0.00, -0.00, -1.00, 515.2, 622.2)">n</text><text xml:space="preserve" font-family="Helvetica-Light,Helvetica" font-size="70.4" fill="#000000" transform="matrix(1.00, 0.00, -0.00, -1.00, 554.4, 622.2)"> </text><text xml:space="preserve" font-family="Helvetica-Light,Helvetica" font-size="70.4" fill="#000000" transform="matrix(1.00, 0.00, -0.00, -1.00, 574.0, 622.2)">Q</text><text xml:space="preserve" font-family="Helvetica-Light,Helvetica" font-size="70.4" fill="#000000" transform="matrix(1.00, 0.00, -0.00, -1.00, 628.7, 622.2)">u</text><text xml:space="preserve" font-family="Helvetica-Light,Helvetica" font-size="70.4" fill="#000000" transform="matrix(1.00, 0.00, -0.00, -1.00, 667.9, 622.2)">a</text><text xml:space="preserve" font-family="Helvetica-Light,Helvetica" font-size="70.4" fill="#000000" transform="matrix(1.00, 0.00, -0.00, -1.00, 707.0, 622.2)">n</text><text xml:space="preserve" font-family="Helvetica-Light,Helvetica" font-size="70.4" fill="#000000" transform="matrix(1.00, 0.00, -0.00, -1.00, 746.2, 622.2)">t</text><text xml:space="preserve" font-family="Helvetica-Light,Helvetica" font-size="70.4" fill="#000000" transform="matrix(1.00, 0.00, -0.00, -1.00, 765.7, 622.2)">o</text><text xml:space="preserve" font-family="Helvetica-Light,Helvetica" font-size="70.4" fill="#000000" transform="matrix(1.00, 0.00, -0.00, -1.00, 804.9, 622.2)">p</text><text xml:space="preserve" font-family="Helvetica-Light,Helvetica" font-size="70.4" fill="#000000" transform="matrix(1.00, 0.00, -0.00, -1.00, 847.9, 622.2)">i</text><text xml:space="preserve" font-family="Helvetica-Light,Helvetica" font-size="70.4" fill="#000000" transform="matrix(1.00, 0.00, -0.00, -1.00, 863.5, 622.2)">a</text><text xml:space="preserve" font-family="Helvetica-Light,Helvetica" font-size="70.4" fill="#000000" transform="matrix(1.00, 0.00, -0.00, -1.00, 902.6, 622.2)">n</text><g><clipPath id="clip0x6080020b9440"><path d="M 100.0 548.0 L 924.0 548.0 L 924.0 98.0 L 100.0 98.0 Z M 100.0 548.0 "></path></clipPath><g clip-path="url(#clip0x6080020b9440)"><path d="M 100.0 548.0 L 512.0 548.0 L 512.0 458.0 L 100.0 458.0 Z M 100.0 548.0 " fill="#0264C0"></path><path d="M 512.0 548.0 L 924.0 548.0 L 924.0 458.0 L 512.0 458.0 Z M 512.0 548.0 " fill="#0264C0"></path><path d="M 100.0 458.0 L 512.0 458.0 L 512.0 368.0 L 100.0 368.0 Z M 100.0 458.0 " fill="#FEFFFF"></path><path d="M 512.0 458.0 L 924.0 458.0 L 924.0 368.0 L 512.0 368.0 Z M 512.0 458.0 " fill="#FEFFFF"></path><path d="M 100.0 368.0 L 512.0 368.0 L 512.0 278.0 L 100.0 278.0 Z M 100.0 368.0 " fill="#E2E5E8"></path><path d="M 512.0 368.0 L 924.0 368.0 L 924.0 278.0 L 512.0 278.0 Z M 512.0 368.0 " fill="#E2E5E8"></path><path d="M 100.0 278.0 L 512.0 278.0 L 512.0 188.0 L 100.0 188.0 Z M 100.0 278.0 " fill="#FEFFFF"></path><path d="M 512.0 278.0 L 924.0 278.0 L 924.0 188.0 L 512.0 188.0 Z M 512.0 278.0 " fill="#FEFFFF"></path><path d="M 100.0 188.0 L 512.0 188.0 L 512.0 98.0 L 100.0 98.0 Z M 100.0 188.0 " fill="#E2E5E8"></path><path d="M 512.0 188.0 L 924.0 188.0 L 924.0 98.0 L 512.0 98.0 Z M 512.0 188.0 " fill="#E2E5E8"></path></g></g><g><clipPath id="clip0x608001ca3720"><path d="M 100.0 548.0 L 924.0 548.0 L 924.0 98.0 L 100.0 98.0 Z M 100.0 548.0 "></path></clipPath><g clip-path="url(#clip0x608001ca3720)"><g><clipPath id="clip0x608001cadce0"><path d="M 100.0 458.5 L 511.5 458.5 L 511.5 548.0 L 100.0 548.0 Z M 100.0 458.5 "></path></clipPath><g clip-path="url(#clip0x608001cadce0)"><text xml:space="preserve" font-family="Helvetica-Bold,Helvetica" font-weight="bold" font-size="26.0" fill="#FEFFFE" transform="matrix(1.00, 0.00, -0.00, -1.00, 252.3, 493.0)">S</text><text xml:space="preserve" font-family="Helvetica-Bold,Helvetica" font-weight="bold" font-size="26.0" fill="#FEFFFE" transform="matrix(1.00, 0.00, -0.00, -1.00, 269.7, 493.0)">t</text><text xml:space="preserve" font-family="Helvetica-Bold,Helvetica" font-weight="bold" font-size="26.0" fill="#FEFFFE" transform="matrix(1.00, 0.00, -0.00, -1.00, 278.3, 493.0)">r</text><text xml:space="preserve" font-family="Helvetica-Bold,Helvetica" font-weight="bold" font-size="26.0" fill="#FEFFFE" transform="matrix(1.00, 0.00, -0.00, -1.00, 288.4, 493.0)">e</text><text xml:space="preserve" font-family="Helvetica-Bold,Helvetica" font-weight="bold" font-size="26.0" fill="#FEFFFE" transform="matrix(1.00, 0.00, -0.00, -1.00, 302.9, 493.0)">n</text><text xml:space="preserve" font-family="Helvetica-Bold,Helvetica" font-weight="bold" font-size="26.0" fill="#FEFFFE" transform="matrix(1.00, 0.00, -0.00, -1.00, 318.8, 493.0)">g</text><text xml:space="preserve" font-family="Helvetica-Bold,Helvetica" font-weight="bold" font-size="26.0" fill="#FEFFFE" transform="matrix(1.00, 0.00, -0.00, -1.00, 334.7, 493.0)">t</text><text xml:space="preserve" font-family="Helvetica-Bold,Helvetica" font-weight="bold" font-size="26.0" fill="#FEFFFE" transform="matrix(1.00, 0.00, -0.00, -1.00, 343.3, 493.0)">h</text></g></g></g></g><g><clipPath id="clip0x6080012b4d00"><path d="M 100.0 548.0 L 924.0 548.0 L 924.0 98.0 L 100.0 98.0 Z M 100.0 548.0 "></path></clipPath><g clip-path="url(#clip0x6080012b4d00)"><g><clipPath id="clip0x608001abc260"><path d="M 512.5 458.5 L 924.0 458.5 L 924.0 548.0 L 512.5 548.0 Z M 512.5 458.5 "></path></clipPath><g clip-path="url(#clip0x608001abc260)"><text xml:space="preserve" font-family="Helvetica-Bold,Helvetica" font-weight="bold" font-size="26.0" fill="#FEFFFE" transform="matrix(1.00, 0.00, -0.00, -1.00, 654.9, 493.0)">W</text><text xml:space="preserve" font-family="Helvetica-Bold,Helvetica" font-weight="bold" font-size="26.0" fill="#FEFFFE" transform="matrix(1.00, 0.00, -0.00, -1.00, 679.0, 493.0)">e</text><text xml:space="preserve" font-family="Helvetica-Bold,Helvetica" font-weight="bold" font-size="26.0" fill="#FEFFFE" transform="matrix(1.00, 0.00, -0.00, -1.00, 693.4, 493.0)">a</text><text xml:space="preserve" font-family="Helvetica-Bold,Helvetica" font-weight="bold" font-size="26.0" fill="#FEFFFE" transform="matrix(1.00, 0.00, -0.00, -1.00, 707.9, 493.0)">k</text><text xml:space="preserve" font-family="Helvetica-Bold,Helvetica" font-weight="bold" font-size="26.0" fill="#FEFFFE" transform="matrix(1.00, 0.00, -0.00, -1.00, 722.4, 493.0)">n</text><text xml:space="preserve" font-family="Helvetica-Bold,Helvetica" font-weight="bold" font-size="26.0" fill="#FEFFFE" transform="matrix(1.00, 0.00, -0.00, -1.00, 738.3, 493.0)">e</text><text xml:space="preserve" font-family="Helvetica-Bold,Helvetica" font-weight="bold" font-size="26.0" fill="#FEFFFE" transform="matrix(1.00, 0.00, -0.00, -1.00, 752.7, 493.0)">s</text><text xml:space="preserve" font-family="Helvetica-Bold,Helvetica" font-weight="bold" font-size="26.0" fill="#FEFFFE" transform="matrix(1.00, 0.00, -0.00, -1.00, 767.2, 493.0)">s</text></g></g></g></g><g><clipPath id="clip0x608001ca6b40"><path d="M 100.0 548.0 L 924.0 548.0 L 924.0 98.0 L 100.0 98.0 Z M 100.0 548.0 "></path></clipPath><g clip-path="url(#clip0x608001ca6b40)"><g><clipPath id="clip0x608001cb9200"><path d="M 100.0 368.0 L 511.5 368.0 L 511.5 457.5 L 100.0 457.5 Z M 100.0 368.0 "></path></clipPath><g clip-path="url(#clip0x608001cb9200)"><text xml:space="preserve" font-family="Helvetica-Light,Helvetica" font-size="26.0" fill="#000000" transform="matrix(1.00, 0.00, -0.00, -1.00, 152.6, 402.5)">A</text><text xml:space="preserve" font-family="Helvetica-Light,Helvetica" font-size="26.0" fill="#000000" transform="matrix(1.00, 0.00, -0.00, -1.00, 169.9, 402.5)">c</text><text xml:space="preserve" font-family="Helvetica-Light,Helvetica" font-size="26.0" fill="#000000" transform="matrix(1.00, 0.00, -0.00, -1.00, 184.4, 402.5)">c</text><text xml:space="preserve" font-family="Helvetica-Light,Helvetica" font-size="26.0" fill="#000000" transform="matrix(1.00, 0.00, -0.00, -1.00, 198.8, 402.5)">e</text><text xml:space="preserve" font-family="Helvetica-Light,Helvetica" font-size="26.0" fill="#000000" transform="matrix(1.00, 0.00, -0.00, -1.00, 213.3, 402.5)">s</text><text xml:space="preserve" font-family="Helvetica-Light,Helvetica" font-size="26.0" fill="#000000" transform="matrix(1.00, 0.00, -0.00, -1.00, 226.3, 402.5)">s</text><text xml:space="preserve" font-family="Helvetica-Light,Helvetica" font-size="26.0" fill="#000000" transform="matrix(1.00, 0.00, -0.00, -1.00, 239.3, 402.5)"> </text><text xml:space="preserve" font-family="Helvetica-Light,Helvetica" font-size="26.0" fill="#000000" transform="matrix(1.00, 0.00, -0.00, -1.00, 246.5, 402.5)">t</text><text xml:space="preserve" font-family="Helvetica-Light,Helvetica" font-size="26.0" fill="#000000" transform="matrix(1.00, 0.00, -0.00, -1.00, 253.7, 402.5)">o</text><text xml:space="preserve" font-family="Helvetica-Light,Helvetica" font-size="26.0" fill="#000000" transform="matrix(1.00, 0.00, -0.00, -1.00, 268.2, 402.5)"> </text><text xml:space="preserve" font-family="Helvetica-Light,Helvetica" font-size="26.0" fill="#000000" transform="matrix(1.00, 0.00, -0.00, -1.00, 275.4, 402.5)">Q</text><text xml:space="preserve" font-family="Helvetica-Light,Helvetica" font-size="26.0" fill="#000000" transform="matrix(1.00, 0.00, -0.00, -1.00, 295.6, 402.5)">u</text><text xml:space="preserve" font-family="Helvetica-Light,Helvetica" font-size="26.0" fill="#000000" transform="matrix(1.00, 0.00, -0.00, -1.00, 310.1, 402.5)">a</text><text xml:space="preserve" font-family="Helvetica-Light,Helvetica" font-size="26.0" fill="#000000" transform="matrix(1.00, 0.00, -0.00, -1.00, 324.5, 402.5)">n</text><text xml:space="preserve" font-family="Helvetica-Light,Helvetica" font-size="26.0" fill="#000000" transform="matrix(1.00, 0.00, -0.00, -1.00, 339.0, 402.5)">t</text><text xml:space="preserve" font-family="Helvetica-Light,Helvetica" font-size="26.0" fill="#000000" transform="matrix(1.00, 0.00, -0.00, -1.00, 346.2, 402.5)">o</text><text xml:space="preserve" font-family="Helvetica-Light,Helvetica" font-size="26.0" fill="#000000" transform="matrix(1.00, 0.00, -0.00, -1.00, 360.7, 402.5)">p</text><text xml:space="preserve" font-family="Helvetica-Light,Helvetica" font-size="26.0" fill="#000000" transform="matrix(1.00, 0.00, -0.00, -1.00, 376.6, 402.5)">i</text><text xml:space="preserve" font-family="Helvetica-Light,Helvetica" font-size="26.0" fill="#000000" transform="matrix(1.00, 0.00, -0.00, -1.00, 382.3, 402.5)">a</text><text xml:space="preserve" font-family="Helvetica-Light,Helvetica" font-size="26.0" fill="#000000" transform="matrix(1.00, 0.00, -0.00, -1.00, 396.8, 402.5)">n</text><text xml:space="preserve" font-family="Helvetica-Light,Helvetica" font-size="26.0" fill="#000000" transform="matrix(1.00, 0.00, -0.00, -1.00, 411.3, 402.5)"> </text><text xml:space="preserve" font-family="Helvetica-Light,Helvetica" font-size="26.0" fill="#000000" transform="matrix(1.00, 0.00, -0.00, -1.00, 418.5, 402.5)">A</text><text xml:space="preserve" font-family="Helvetica-Light,Helvetica" font-size="26.0" fill="#000000" transform="matrix(1.00, 0.00, -0.00, -1.00, 435.8, 402.5)">P</text><text xml:space="preserve" font-family="Helvetica-Light,Helvetica" font-size="26.0" fill="#000000" transform="matrix(1.00, 0.00, -0.00, -1.00, 451.7, 402.5)">I</text></g></g></g></g><g><clipPath id="clip0x6080018acd20"><path d="M 100.0 548.0 L 924.0 548.0 L 924.0 98.0 L 100.0 98.0 Z M 100.0 548.0 "></path></clipPath><g clip-path="url(#clip0x6080018acd20)"><g><clipPath id="clip0x6080018a6f60"><path d="M 512.5 368.0 L 924.0 368.0 L 924.0 457.5 L 512.5 457.5 Z M 512.5 368.0 "></path></clipPath><g clip-path="url(#clip0x6080018a6f60)"><text xml:space="preserve" font-family="Helvetica-Light,Helvetica" font-size="26.0" fill="#000000" transform="matrix(1.00, 0.00, -0.00, -1.00, 572.1, 402.5)">L</text><text xml:space="preserve" font-family="Helvetica-Light,Helvetica" font-size="26.0" fill="#000000" transform="matrix(1.00, 0.00, -0.00, -1.00, 586.5, 402.5)">i</text><text xml:space="preserve" font-family="Helvetica-Light,Helvetica" font-size="26.0" fill="#000000" transform="matrix(1.00, 0.00, -0.00, -1.00, 592.3, 402.5)">m</text><text xml:space="preserve" font-family="Helvetica-Light,Helvetica" font-size="26.0" fill="#000000" transform="matrix(1.00, 0.00, -0.00, -1.00, 614.0, 402.5)">i</text><text xml:space="preserve" font-family="Helvetica-Light,Helvetica" font-size="26.0" fill="#000000" transform="matrix(1.00, 0.00, -0.00, -1.00, 619.7, 402.5)">t</text><text xml:space="preserve" font-family="Helvetica-Light,Helvetica" font-size="26.0" fill="#000000" transform="matrix(1.00, 0.00, -0.00, -1.00, 627.0, 402.5)">e</text><text xml:space="preserve" font-family="Helvetica-Light,Helvetica" font-size="26.0" fill="#000000" transform="matrix(1.00, 0.00, -0.00, -1.00, 641.4, 402.5)">d</text><text xml:space="preserve" font-family="Helvetica-Light,Helvetica" font-size="26.0" fill="#000000" transform="matrix(1.00, 0.00, -0.00, -1.00, 657.3, 402.5)"> </text><text xml:space="preserve" font-family="Helvetica-Light,Helvetica" font-size="26.0" fill="#000000" transform="matrix(1.00, 0.00, -0.00, -1.00, 664.5, 402.5)">p</text><text xml:space="preserve" font-family="Helvetica-Light,Helvetica" font-size="26.0" fill="#000000" transform="matrix(1.00, 0.00, -0.00, -1.00, 680.4, 402.5)">a</text><text xml:space="preserve" font-family="Helvetica-Light,Helvetica" font-size="26.0" fill="#000000" transform="matrix(1.00, 0.00, -0.00, -1.00, 694.9, 402.5)">c</text><text xml:space="preserve" font-family="Helvetica-Light,Helvetica" font-size="26.0" fill="#000000" transform="matrix(1.00, 0.00, -0.00, -1.00, 709.3, 402.5)">k</text><text xml:space="preserve" font-family="Helvetica-Light,Helvetica" font-size="26.0" fill="#000000" transform="matrix(1.00, 0.00, -0.00, -1.00, 722.3, 402.5)">a</text><text xml:space="preserve" font-family="Helvetica-Light,Helvetica" font-size="26.0" fill="#000000" transform="matrix(1.00, 0.00, -0.00, -1.00, 736.8, 402.5)">g</text><text xml:space="preserve" font-family="Helvetica-Light,Helvetica" font-size="26.0" fill="#000000" transform="matrix(1.00, 0.00, -0.00, -1.00, 752.7, 402.5)">e</text><text xml:space="preserve" font-family="Helvetica-Light,Helvetica" font-size="26.0" fill="#000000" transform="matrix(1.00, 0.00, -0.00, -1.00, 767.1, 402.5)"> </text><text xml:space="preserve" font-family="Helvetica-Light,Helvetica" font-size="26.0" fill="#000000" transform="matrix(1.00, 0.00, -0.00, -1.00, 774.4, 402.5)">s</text><text xml:space="preserve" font-family="Helvetica-Light,Helvetica" font-size="26.0" fill="#000000" transform="matrix(1.00, 0.00, -0.00, -1.00, 787.4, 402.5)">u</text><text xml:space="preserve" font-family="Helvetica-Light,Helvetica" font-size="26.0" fill="#000000" transform="matrix(1.00, 0.00, -0.00, -1.00, 801.8, 402.5)">p</text><text xml:space="preserve" font-family="Helvetica-Light,Helvetica" font-size="26.0" fill="#000000" transform="matrix(1.00, 0.00, -0.00, -1.00, 817.7, 402.5)">p</text><text xml:space="preserve" font-family="Helvetica-Light,Helvetica" font-size="26.0" fill="#000000" transform="matrix(1.00, 0.00, -0.00, -1.00, 833.6, 402.5)">o</text><text xml:space="preserve" font-family="Helvetica-Light,Helvetica" font-size="26.0" fill="#000000" transform="matrix(1.00, 0.00, -0.00, -1.00, 848.1, 402.5)">r</text><text xml:space="preserve" font-family="Helvetica-Light,Helvetica" font-size="26.0" fill="#000000" transform="matrix(1.00, 0.00, -0.00, -1.00, 857.2, 402.5)">t</text></g></g></g></g><g><clipPath id="clip0x600001ab39e0"><path d="M 100.0 548.0 L 924.0 548.0 L 924.0 98.0 L 100.0 98.0 Z M 100.0 548.0 "></path></clipPath><g clip-path="url(#clip0x600001ab39e0)"><g><clipPath id="clip0x600001aaeb80"><path d="M 100.0 278.0 L 511.5 278.0 L 511.5 368.0 L 100.0 368.0 Z M 100.0 278.0 "></path></clipPath><g clip-path="url(#clip0x600001aaeb80)"><text xml:space="preserve" font-family="Helvetica-Light,Helvetica" font-size="26.0" fill="#000000" transform="matrix(1.00, 0.00, -0.00, -1.00, 113.6, 313.0)">I</text><text xml:space="preserve" font-family="Helvetica-Light,Helvetica" font-size="26.0" fill="#000000" transform="matrix(1.00, 0.00, -0.00, -1.00, 120.8, 313.0)">n</text><text xml:space="preserve" font-family="Helvetica-Light,Helvetica" font-size="26.0" fill="#000000" transform="matrix(1.00, 0.00, -0.00, -1.00, 135.3, 313.0)">t</text><text xml:space="preserve" font-family="Helvetica-Light,Helvetica" font-size="26.0" fill="#000000" transform="matrix(1.00, 0.00, -0.00, -1.00, 142.5, 313.0)">e</text><text xml:space="preserve" font-family="Helvetica-Light,Helvetica" font-size="26.0" fill="#000000" transform="matrix(1.00, 0.00, -0.00, -1.00, 157.0, 313.0)">g</text><text xml:space="preserve" font-family="Helvetica-Light,Helvetica" font-size="26.0" fill="#000000" transform="matrix(1.00, 0.00, -0.00, -1.00, 172.8, 313.0)">r</text><text xml:space="preserve" font-family="Helvetica-Light,Helvetica" font-size="26.0" fill="#000000" transform="matrix(1.00, 0.00, -0.00, -1.00, 181.5, 313.0)">a</text><text xml:space="preserve" font-family="Helvetica-Light,Helvetica" font-size="26.0" fill="#000000" transform="matrix(1.00, 0.00, -0.00, -1.00, 196.0, 313.0)">t</text><text xml:space="preserve" font-family="Helvetica-Light,Helvetica" font-size="26.0" fill="#000000" transform="matrix(1.00, 0.00, -0.00, -1.00, 203.2, 313.0)">e</text><text xml:space="preserve" font-family="Helvetica-Light,Helvetica" font-size="26.0" fill="#000000" transform="matrix(1.00, 0.00, -0.00, -1.00, 217.6, 313.0)">d</text><text xml:space="preserve" font-family="Helvetica-Light,Helvetica" font-size="26.0" fill="#000000" transform="matrix(1.00, 0.00, -0.00, -1.00, 233.5, 313.0)"> </text><text xml:space="preserve" font-family="Helvetica-Light,Helvetica" font-size="26.0" fill="#000000" transform="matrix(1.00, 0.00, -0.00, -1.00, 240.8, 313.0)">D</text><text xml:space="preserve" font-family="Helvetica-Light,Helvetica" font-size="26.0" fill="#000000" transform="matrix(1.00, 0.00, -0.00, -1.00, 259.5, 313.0)">y</text><text xml:space="preserve" font-family="Helvetica-Light,Helvetica" font-size="26.0" fill="#000000" transform="matrix(1.00, 0.00, -0.00, -1.00, 272.5, 313.0)">n</text><text xml:space="preserve" font-family="Helvetica-Light,Helvetica" font-size="26.0" fill="#000000" transform="matrix(1.00, 0.00, -0.00, -1.00, 287.0, 313.0)">a</text><text xml:space="preserve" font-family="Helvetica-Light,Helvetica" font-size="26.0" fill="#000000" transform="matrix(1.00, 0.00, -0.00, -1.00, 301.4, 313.0)">m</text><text xml:space="preserve" font-family="Helvetica-Light,Helvetica" font-size="26.0" fill="#000000" transform="matrix(1.00, 0.00, -0.00, -1.00, 323.1, 313.0)">i</text><text xml:space="preserve" font-family="Helvetica-Light,Helvetica" font-size="26.0" fill="#000000" transform="matrix(1.00, 0.00, -0.00, -1.00, 328.9, 313.0)">c</text><text xml:space="preserve" font-family="Helvetica-Light,Helvetica" font-size="26.0" fill="#000000" transform="matrix(1.00, 0.00, -0.00, -1.00, 343.3, 313.0)"> </text><text xml:space="preserve" font-family="Helvetica-Light,Helvetica" font-size="26.0" fill="#000000" transform="matrix(1.00, 0.00, -0.00, -1.00, 350.5, 313.0)">C</text><text xml:space="preserve" font-family="Helvetica-Light,Helvetica" font-size="26.0" fill="#000000" transform="matrix(1.00, 0.00, -0.00, -1.00, 369.3, 313.0)">o</text><text xml:space="preserve" font-family="Helvetica-Light,Helvetica" font-size="26.0" fill="#000000" transform="matrix(1.00, 0.00, -0.00, -1.00, 383.8, 313.0)">d</text><text xml:space="preserve" font-family="Helvetica-Light,Helvetica" font-size="26.0" fill="#000000" transform="matrix(1.00, 0.00, -0.00, -1.00, 399.7, 313.0)">i</text><text xml:space="preserve" font-family="Helvetica-Light,Helvetica" font-size="26.0" fill="#000000" transform="matrix(1.00, 0.00, -0.00, -1.00, 405.4, 313.0)">n</text><text xml:space="preserve" font-family="Helvetica-Light,Helvetica" font-size="26.0" fill="#000000" transform="matrix(1.00, 0.00, -0.00, -1.00, 419.9, 313.0)">g</text><text xml:space="preserve" font-family="Helvetica-Light,Helvetica" font-size="26.0" fill="#000000" transform="matrix(1.00, 0.00, -0.00, -1.00, 435.8, 313.0)"> </text><text xml:space="preserve" font-family="Helvetica-Light,Helvetica" font-size="26.0" fill="#000000" transform="matrix(1.00, 0.00, -0.00, -1.00, 443.0, 313.0)">t</text><text xml:space="preserve" font-family="Helvetica-Light,Helvetica" font-size="26.0" fill="#000000" transform="matrix(1.00, 0.00, -0.00, -1.00, 450.2, 313.0)">o</text><text xml:space="preserve" font-family="Helvetica-Light,Helvetica" font-size="26.0" fill="#000000" transform="matrix(1.00, 0.00, -0.00, -1.00, 464.7, 313.0)">o</text><text xml:space="preserve" font-family="Helvetica-Light,Helvetica" font-size="26.0" fill="#000000" transform="matrix(1.00, 0.00, -0.00, -1.00, 479.1, 313.0)">l</text><text xml:space="preserve" font-family="Helvetica-Light,Helvetica" font-size="26.0" fill="#000000" transform="matrix(1.00, 0.00, -0.00, -1.00, 484.9, 313.0)">s</text></g></g></g></g><g><clipPath id="clip0x600001ab5180"><path d="M 100.0 548.0 L 924.0 548.0 L 924.0 98.0 L 100.0 98.0 Z M 100.0 548.0 "></path></clipPath><g clip-path="url(#clip0x600001ab5180)"><g><clipPath id="clip0x6000018b4a00"><path d="M 512.5 278.0 L 924.0 278.0 L 924.0 368.0 L 512.5 368.0 Z M 512.5 278.0 "></path></clipPath><g clip-path="url(#clip0x6000018b4a00)"><text xml:space="preserve" font-family="Helvetica-Light,Helvetica" font-size="26.0" fill="#000000" transform="matrix(1.00, 0.00, -0.00, -1.00, 578.1, 313.0)">N</text><text xml:space="preserve" font-family="Helvetica-Light,Helvetica" font-size="26.0" fill="#000000" transform="matrix(1.00, 0.00, -0.00, -1.00, 596.9, 313.0)">o</text><text xml:space="preserve" font-family="Helvetica-Light,Helvetica" font-size="26.0" fill="#000000" transform="matrix(1.00, 0.00, -0.00, -1.00, 611.3, 313.0)"> </text><text xml:space="preserve" font-family="Helvetica-Light,Helvetica" font-size="26.0" fill="#000000" transform="matrix(1.00, 0.00, -0.00, -1.00, 618.6, 313.0)">e</text><text xml:space="preserve" font-family="Helvetica-Light,Helvetica" font-size="26.0" fill="#000000" transform="matrix(1.00, 0.00, -0.00, -1.00, 633.0, 313.0)">n</text><text xml:space="preserve" font-family="Helvetica-Light,Helvetica" font-size="26.0" fill="#000000" transform="matrix(1.00, 0.00, -0.00, -1.00, 647.5, 313.0)">v</text><text xml:space="preserve" font-family="Helvetica-Light,Helvetica" font-size="26.0" fill="#000000" transform="matrix(1.00, 0.00, -0.00, -1.00, 660.5, 313.0)">i</text><text xml:space="preserve" font-family="Helvetica-Light,Helvetica" font-size="26.0" fill="#000000" transform="matrix(1.00, 0.00, -0.00, -1.00, 666.2, 313.0)">r</text><text xml:space="preserve" font-family="Helvetica-Light,Helvetica" font-size="26.0" fill="#000000" transform="matrix(1.00, 0.00, -0.00, -1.00, 674.4, 313.0)">o</text><text xml:space="preserve" font-family="Helvetica-Light,Helvetica" font-size="26.0" fill="#000000" transform="matrix(1.00, 0.00, -0.00, -1.00, 688.9, 313.0)">n</text><text xml:space="preserve" font-family="Helvetica-Light,Helvetica" font-size="26.0" fill="#000000" transform="matrix(1.00, 0.00, -0.00, -1.00, 703.3, 313.0)">m</text><text xml:space="preserve" font-family="Helvetica-Light,Helvetica" font-size="26.0" fill="#000000" transform="matrix(1.00, 0.00, -0.00, -1.00, 725.0, 313.0)">e</text><text xml:space="preserve" font-family="Helvetica-Light,Helvetica" font-size="26.0" fill="#000000" transform="matrix(1.00, 0.00, -0.00, -1.00, 739.5, 313.0)">n</text><text xml:space="preserve" font-family="Helvetica-Light,Helvetica" font-size="26.0" fill="#000000" transform="matrix(1.00, 0.00, -0.00, -1.00, 753.9, 313.0)">t</text><text xml:space="preserve" font-family="Helvetica-Light,Helvetica" font-size="26.0" fill="#000000" transform="matrix(1.00, 0.00, -0.00, -1.00, 761.1, 313.0)"> </text><text xml:space="preserve" font-family="Helvetica-Light,Helvetica" font-size="26.0" fill="#000000" transform="matrix(1.00, 0.00, -0.00, -1.00, 768.4, 313.0)">s</text><text xml:space="preserve" font-family="Helvetica-Light,Helvetica" font-size="26.0" fill="#000000" transform="matrix(1.00, 0.00, -0.00, -1.00, 781.4, 313.0)">u</text><text xml:space="preserve" font-family="Helvetica-Light,Helvetica" font-size="26.0" fill="#000000" transform="matrix(1.00, 0.00, -0.00, -1.00, 795.8, 313.0)">p</text><text xml:space="preserve" font-family="Helvetica-Light,Helvetica" font-size="26.0" fill="#000000" transform="matrix(1.00, 0.00, -0.00, -1.00, 811.7, 313.0)">p</text><text xml:space="preserve" font-family="Helvetica-Light,Helvetica" font-size="26.0" fill="#000000" transform="matrix(1.00, 0.00, -0.00, -1.00, 827.6, 313.0)">o</text><text xml:space="preserve" font-family="Helvetica-Light,Helvetica" font-size="26.0" fill="#000000" transform="matrix(1.00, 0.00, -0.00, -1.00, 842.0, 313.0)">r</text><text xml:space="preserve" font-family="Helvetica-Light,Helvetica" font-size="26.0" fill="#000000" transform="matrix(1.00, 0.00, -0.00, -1.00, 851.2, 313.0)">t</text></g></g></g></g><g><clipPath id="clip0x600001aa0ae0"><path d="M 100.0 548.0 L 924.0 548.0 L 924.0 98.0 L 100.0 98.0 Z M 100.0 548.0 "></path></clipPath><g clip-path="url(#clip0x600001aa0ae0)"><g><clipPath id="clip0x6000018b1100"><path d="M 100.0 188.0 L 511.5 188.0 L 511.5 278.0 L 100.0 278.0 Z M 100.0 188.0 "></path></clipPath><g clip-path="url(#clip0x6000018b1100)"><text xml:space="preserve" font-family="Helvetica-Light,Helvetica" font-size="26.0" fill="#000000" transform="matrix(1.00, 0.00, -0.00, -1.00, 190.2, 223.0)">S</text><text xml:space="preserve" font-family="Helvetica-Light,Helvetica" font-size="26.0" fill="#000000" transform="matrix(1.00, 0.00, -0.00, -1.00, 206.1, 223.0)">t</text><text xml:space="preserve" font-family="Helvetica-Light,Helvetica" font-size="26.0" fill="#000000" transform="matrix(1.00, 0.00, -0.00, -1.00, 213.3, 223.0)">r</text><text xml:space="preserve" font-family="Helvetica-Light,Helvetica" font-size="26.0" fill="#000000" transform="matrix(1.00, 0.00, -0.00, -1.00, 221.5, 223.0)">o</text><text xml:space="preserve" font-family="Helvetica-Light,Helvetica" font-size="26.0" fill="#000000" transform="matrix(1.00, 0.00, -0.00, -1.00, 235.9, 223.0)">n</text><text xml:space="preserve" font-family="Helvetica-Light,Helvetica" font-size="26.0" fill="#000000" transform="matrix(1.00, 0.00, -0.00, -1.00, 250.4, 223.0)">g</text><text xml:space="preserve" font-family="Helvetica-Light,Helvetica" font-size="26.0" fill="#000000" transform="matrix(1.00, 0.00, -0.00, -1.00, 266.3, 223.0)"> </text><text xml:space="preserve" font-family="Helvetica-Light,Helvetica" font-size="26.0" fill="#000000" transform="matrix(1.00, 0.00, -0.00, -1.00, 273.5, 223.0)">u</text><text xml:space="preserve" font-family="Helvetica-Light,Helvetica" font-size="26.0" fill="#000000" transform="matrix(1.00, 0.00, -0.00, -1.00, 288.0, 223.0)">s</text><text xml:space="preserve" font-family="Helvetica-Light,Helvetica" font-size="26.0" fill="#000000" transform="matrix(1.00, 0.00, -0.00, -1.00, 301.0, 223.0)">e</text><text xml:space="preserve" font-family="Helvetica-Light,Helvetica" font-size="26.0" fill="#000000" transform="matrix(1.00, 0.00, -0.00, -1.00, 315.4, 223.0)">r</text><text xml:space="preserve" font-family="Helvetica-Light,Helvetica" font-size="26.0" fill="#000000" transform="matrix(1.00, 0.00, -0.00, -1.00, 324.1, 223.0)"> </text><text xml:space="preserve" font-family="Helvetica-Light,Helvetica" font-size="26.0" fill="#000000" transform="matrix(1.00, 0.00, -0.00, -1.00, 331.3, 223.0)">s</text><text xml:space="preserve" font-family="Helvetica-Light,Helvetica" font-size="26.0" fill="#000000" transform="matrix(1.00, 0.00, -0.00, -1.00, 344.3, 223.0)">u</text><text xml:space="preserve" font-family="Helvetica-Light,Helvetica" font-size="26.0" fill="#000000" transform="matrix(1.00, 0.00, -0.00, -1.00, 358.8, 223.0)">p</text><text xml:space="preserve" font-family="Helvetica-Light,Helvetica" font-size="26.0" fill="#000000" transform="matrix(1.00, 0.00, -0.00, -1.00, 374.6, 223.0)">p</text><text xml:space="preserve" font-family="Helvetica-Light,Helvetica" font-size="26.0" fill="#000000" transform="matrix(1.00, 0.00, -0.00, -1.00, 390.5, 223.0)">o</text><text xml:space="preserve" font-family="Helvetica-Light,Helvetica" font-size="26.0" fill="#000000" transform="matrix(1.00, 0.00, -0.00, -1.00, 405.0, 223.0)">r</text><text xml:space="preserve" font-family="Helvetica-Light,Helvetica" font-size="26.0" fill="#000000" transform="matrix(1.00, 0.00, -0.00, -1.00, 414.1, 223.0)">t</text></g></g></g></g><g><clipPath id="clip0x600001ab3da0"><path d="M 100.0 548.0 L 924.0 548.0 L 924.0 98.0 L 100.0 98.0 Z M 100.0 548.0 "></path></clipPath><g clip-path="url(#clip0x600001ab3da0)"><path d="M 413.0 1.0 L 413.0 91.0 " fill="none" stroke="#3697C6" stroke-width="1.00" transform="matrix(1.00, 0.00, 0.00, -1.00, 99.0, 549.0)"></path><path d="M 413.0 91.0 L 413.0 451.0 " fill="none" stroke="#3697C6" stroke-width="1.00" transform="matrix(1.00, 0.00, 0.00, -1.00, 99.0, 549.0)"></path></g></g></g></svg>